STARTFONT 2.1
FONT -Adobe-Symbol-Medium-R-Normal--8-80-75-75-P-51-Adobe-FontSpecific
SIZE 8 75 75
FONTBOUNDINGBOX 9 11 -1 -3
COMMENT $XFree86$
COMMENT 
COMMENT +
COMMENT  Copyright 1984-1989, 1994 Adobe Systems Incorporated.
COMMENT  Copyright 1988, 1994 Digital Equipment Corporation.
COMMENT
COMMENT  Adobe is a trademark of Adobe Systems Incorporated which may be
COMMENT  registered in certain jurisdictions.
COMMENT  Permission to use these trademarks is hereby granted only in
COMMENT  association with the images described in this file.
COMMENT
COMMENT  Permission to use, copy, modify, distribute and sell this software
COMMENT  and its documentation for any purpose and without fee is hereby
COMMENT  granted, provided that the above copyright notices appear in all
COMMENT  copies and that both those copyright notices and this permission
COMMENT  notice appear in supporting documentation, and that the names of
COMMENT  Adobe Systems and Digital Equipment Corporation not be used in
COMMENT  advertising or publicity pertaining to distribution of the software
COMMENT  without specific, written prior permission.  Adobe Systems and
COMMENT  Digital Equipment Corporation make no representations about the
COMMENT  suitability of this software for any purpose.  It is provided "as
COMMENT  is" without express or implied warranty.
COMMENT -
STARTPROPERTIES 27
FOUNDRY "Adobe"
FAMILY_NAME "Symbol"
WEIGHT_NAME "Medium"
SLANT "R"
SETWIDTH_NAME "Normal"
ADD_STYLE_NAME ""
PIXEL_SIZE 8
POINT_SIZE 80
RESOLUTION_X 75
RESOLUTION_Y 75
SPACING "P"
AVERAGE_WIDTH 51
CHARSET_REGISTRY "Adobe"
CHARSET_ENCODING "FontSpecific"
CAP_HEIGHT 6
X_HEIGHT 4
FONT_ASCENT 8
FONT_DESCENT 2
FACE_NAME "Symbol"
COPYRIGHT "Copyright (c) 1984, 1987 Adobe Systems Incorporated. All Rights Reserved. Copyright (c) 1988, 1991 Digital Equipment Corporation. All Rights Reserved."
NOTICE "No mark"
_DEC_DEVICE_FONTNAMES "PS=Symbol"
_DEC_PRODUCTINFO "DECwindows Fonts V2.2-1, 18-Nov-1991"
DEFAULT_CHAR 32

STARTCHAR space
ENCODING 32
SWIDTH 250 0
DWIDTH 2 0
BBX 1 1 0 0
BITMAP
00
ENDCHAR
STARTCHAR exclam
ENCODING 33
SWIDTH 333 0
DWIDTH 2 0
BBX 1 6 1 0
BITMAP
80
80
80
80
00
80
ENDCHAR
STARTCHAR universal
ENCODING 34
SWIDTH 713 0
DWIDTH 6 0
BBX 5 6 0 0
BITMAP
88
88
70
50
20
20
ENDCHAR
STARTCHAR numbersign
ENCODING 35
SWIDTH 500 0
DWIDTH 4 0
BBX 5 6 -1 0
BITMAP
50
F8
50
50
F8
50
ENDCHAR
STARTCHAR existential
ENCODING 36
SWIDTH 549 0
DWIDTH 5 0
BBX 4 6 0 0
BITMAP
F0
10
10
70
10
F0
ENDCHAR
STARTCHAR percent
ENCODING 37
SWIDTH 833 0
DWIDTH 6 0
BBX 5 5 0 0
BITMAP
C8
D0
20
58
98
ENDCHAR
STARTCHAR ampersand
ENCODING 38
SWIDTH 778 0
DWIDTH 6 0
BBX 5 6 0 0
BITMAP
60
50
20
F8
A0
58
ENDCHAR
STARTCHAR suchthat
ENCODING 39
SWIDTH 439 0
DWIDTH 4 0
BBX 3 4 0 0
BITMAP
C0
60
20
C0
ENDCHAR
STARTCHAR parenleft
ENCODING 40
SWIDTH 333 0
DWIDTH 3 0
BBX 2 8 0 -2
BITMAP
40
80
80
80
80
80
80
40
ENDCHAR
STARTCHAR parenright
ENCODING 41
SWIDTH 333 0
DWIDTH 3 0
BBX 2 8 1 -2
BITMAP
80
40
40
40
40
40
40
80
ENDCHAR
STARTCHAR asteriskmath
ENCODING 42
SWIDTH 500 0
DWIDTH 4 0
BBX 3 3 1 2
BITMAP
40
E0
A0
ENDCHAR
STARTCHAR plus
ENCODING 43
SWIDTH 549 0
DWIDTH 5 0
BBX 5 5 0 0
BITMAP
20
20
F8
20
20
ENDCHAR
STARTCHAR comma
ENCODING 44
SWIDTH 250 0
DWIDTH 2 0
BBX 2 3 0 -2
BITMAP
40
40
80
ENDCHAR
STARTCHAR minus
ENCODING 45
SWIDTH 549 0
DWIDTH 5 0
BBX 5 1 0 2
BITMAP
F8
ENDCHAR
STARTCHAR period
ENCODING 46
SWIDTH 250 0
DWIDTH 2 0
BBX 1 1 1 0
BITMAP
80
ENDCHAR
STARTCHAR slash
ENCODING 47
SWIDTH 278 0
DWIDTH 2 0
BBX 2 6 0 0
BITMAP
40
40
40
80
80
80
ENDCHAR
STARTCHAR zero
ENCODING 48
SWIDTH 500 0
DWIDTH 4 0
BBX 3 6 0 0
BITMAP
40
A0
A0
A0
A0
40
ENDCHAR
STARTCHAR one
ENCODING 49
SWIDTH 500 0
DWIDTH 4 0
BBX 3 6 0 0
BITMAP
40
C0
40
40
40
E0
ENDCHAR
STARTCHAR two
ENCODING 50
SWIDTH 500 0
DWIDTH 4 0
BBX 3 6 0 0
BITMAP
40
A0
20
40
80
E0
ENDCHAR
STARTCHAR three
ENCODING 51
SWIDTH 500 0
DWIDTH 4 0
BBX 3 6 0 0
BITMAP
40
A0
20
60
20
C0
ENDCHAR
STARTCHAR four
ENCODING 52
SWIDTH 500 0
DWIDTH 4 0
BBX 4 6 0 0
BITMAP
20
60
A0
F0
20
20
ENDCHAR
STARTCHAR five
ENCODING 53
SWIDTH 500 0
DWIDTH 4 0
BBX 3 6 0 0
BITMAP
E0
80
C0
20
20
C0
ENDCHAR
STARTCHAR six
ENCODING 54
SWIDTH 500 0
DWIDTH 4 0
BBX 3 6 0 0
BITMAP
60
80
C0
A0
A0
40
ENDCHAR
STARTCHAR seven
ENCODING 55
SWIDTH 500 0
DWIDTH 4 0
BBX 3 6 0 0
BITMAP
E0
A0
20
40
40
40
ENDCHAR
STARTCHAR eight
ENCODING 56
SWIDTH 500 0
DWIDTH 4 0
BBX 3 6 0 0
BITMAP
40
A0
40
A0
A0
40
ENDCHAR
STARTCHAR nine
ENCODING 57
SWIDTH 500 0
DWIDTH 4 0
BBX 3 6 0 0
BITMAP
40
A0
A0
E0
20
C0
ENDCHAR
STARTCHAR colon
ENCODING 58
SWIDTH 278 0
DWIDTH 2 0
BBX 1 4 1 0
BITMAP
80
00
00
80
ENDCHAR
STARTCHAR semicolon
ENCODING 59
SWIDTH 278 0
DWIDTH 2 0
BBX 2 6 0 -2
BITMAP
40
00
00
40
40
80
ENDCHAR
STARTCHAR less
ENCODING 60
SWIDTH 549 0
DWIDTH 6 0
BBX 5 5 0 0
BITMAP
18
60
C0
60
18
ENDCHAR
STARTCHAR equal
ENCODING 61
SWIDTH 549 0
DWIDTH 5 0
BBX 4 3 0 1
BITMAP
F0
00
F0
ENDCHAR
STARTCHAR greater
ENCODING 62
SWIDTH 549 0
DWIDTH 5 0
BBX 5 5 0 0
BITMAP
C0
30
18
30
C0
ENDCHAR
STARTCHAR question
ENCODING 63
SWIDTH 444 0
DWIDTH 4 0
BBX 3 6 0 0
BITMAP
40
A0
20
40
00
40
ENDCHAR
STARTCHAR congruent
ENCODING 64
SWIDTH 549 0
DWIDTH 5 0
BBX 4 6 0 0
BITMAP
50
A0
00
F0
00
F0
ENDCHAR
STARTCHAR Alpha
ENCODING 65
SWIDTH 722 0
DWIDTH 6 0
BBX 5 6 0 0
BITMAP
20
70
50
70
50
D8
ENDCHAR
STARTCHAR Beta
ENCODING 66
SWIDTH 667 0
DWIDTH 5 0
BBX 4 6 0 0
BITMAP
E0
50
60
50
50
E0
ENDCHAR
STARTCHAR Chi
ENCODING 67
SWIDTH 722 0
DWIDTH 6 0
BBX 5 6 0 0
BITMAP
88
50
20
20
50
88
ENDCHAR
STARTCHAR Delta
ENCODING 68
SWIDTH 612 0
DWIDTH 6 0
BBX 5 6 0 0
BITMAP
20
50
50
88
88
F8
ENDCHAR
STARTCHAR Epsilon
ENCODING 69
SWIDTH 611 0
DWIDTH 5 0
BBX 4 6 0 0
BITMAP
F0
40
70
40
40
F0
ENDCHAR
STARTCHAR Phi
ENCODING 70
SWIDTH 763 0
DWIDTH 6 0
BBX 5 6 1 0
BITMAP
70
20
A8
A8
20
70
ENDCHAR
STARTCHAR Gamma
ENCODING 71
SWIDTH 603 0
DWIDTH 5 0
BBX 4 6 0 0
BITMAP
F0
50
40
40
40
C0
ENDCHAR
STARTCHAR Eta
ENCODING 72
SWIDTH 722 0
DWIDTH 6 0
BBX 5 6 0 0
BITMAP
D8
48
78
48
48
D8
ENDCHAR
STARTCHAR Iota
ENCODING 73
SWIDTH 333 0
DWIDTH 2 0
BBX 2 6 0 0
BITMAP
C0
40
40
40
40
C0
ENDCHAR
STARTCHAR theta1
ENCODING 74
SWIDTH 631 0
DWIDTH 6 0
BBX 5 6 1 0
BITMAP
60
50
38
D0
50
60
ENDCHAR
STARTCHAR Kappa
ENCODING 75
SWIDTH 722 0
DWIDTH 6 0
BBX 5 6 0 0
BITMAP
D8
50
60
60
50
D8
ENDCHAR
STARTCHAR Lambda
ENCODING 76
SWIDTH 686 0
DWIDTH 6 0
BBX 6 6 0 0
BITMAP
20
30
48
48
48
CC
ENDCHAR
STARTCHAR Mu
ENCODING 77
SWIDTH 889 0
DWIDTH 8 0
BBX 7 6 0 0
BITMAP
C6
44
6C
54
54
D6
ENDCHAR
STARTCHAR Nu
ENCODING 78
SWIDTH 722 0
DWIDTH 6 0
BBX 5 6 0 0
BITMAP
D8
48
68
78
58
C8
ENDCHAR
STARTCHAR Omicron
ENCODING 79
SWIDTH 722 0
DWIDTH 6 0
BBX 5 6 0 0
BITMAP
70
D8
88
88
D8
70
ENDCHAR
STARTCHAR Pi
ENCODING 80
SWIDTH 768 0
DWIDTH 6 0
BBX 6 6 0 0
BITMAP
FC
48
48
48
48
D8
ENDCHAR
STARTCHAR Theta
ENCODING 81
SWIDTH 741 0
DWIDTH 6 0
BBX 5 6 0 0
BITMAP
70
D8
A8
A8
D8
70
ENDCHAR
STARTCHAR Rho
ENCODING 82
SWIDTH 556 0
DWIDTH 5 0
BBX 4 6 0 0
BITMAP
E0
50
50
60
40
E0
ENDCHAR
STARTCHAR Sigma
ENCODING 83
SWIDTH 592 0
DWIDTH 5 0
BBX 4 6 0 0
BITMAP
F0
90
40
40
90
F0
ENDCHAR
STARTCHAR Tau
ENCODING 84
SWIDTH 611 0
DWIDTH 5 0
BBX 4 6 0 0
BITMAP
F0
50
40
40
40
60
ENDCHAR
STARTCHAR Upsilon
ENCODING 85
SWIDTH 690 0
DWIDTH 6 0
BBX 5 6 0 0
BITMAP
D8
48
50
20
20
70
ENDCHAR
STARTCHAR sigma1
ENCODING 86
SWIDTH 439 0
DWIDTH 4 0
BBX 3 6 0 -2
BITMAP
60
80
80
40
20
40
ENDCHAR
STARTCHAR Omega
ENCODING 87
SWIDTH 768 0
DWIDTH 7 0
BBX 5 6 1 0
BITMAP
20
50
88
88
50
D8
ENDCHAR
STARTCHAR Xi
ENCODING 88
SWIDTH 645 0
DWIDTH 6 0
BBX 5 6 0 0
BITMAP
70
00
70
00
88
F8
ENDCHAR
STARTCHAR Psi
ENCODING 89
SWIDTH 795 0
DWIDTH 7 0
BBX 7 6 0 0
BITMAP
D6
54
54
7C
10
38
ENDCHAR
STARTCHAR Zeta
ENCODING 90
SWIDTH 611 0
DWIDTH 5 0
BBX 4 6 0 0
BITMAP
F0
90
20
40
90
F0
ENDCHAR
STARTCHAR bracketleft
ENCODING 91
SWIDTH 333 0
DWIDTH 2 0
BBX 2 8 0 -2
BITMAP
C0
80
80
80
80
80
80
C0
ENDCHAR
STARTCHAR therefore
ENCODING 92
SWIDTH 863 0
DWIDTH 6 0
BBX 4 4 1 0
BITMAP
40
00
00
90
ENDCHAR
STARTCHAR bracketright
ENCODING 93
SWIDTH 333 0
DWIDTH 2 0
BBX 2 8 1 -2
BITMAP
C0
40
40
40
40
40
40
C0
ENDCHAR
STARTCHAR perpendicular
ENCODING 94
SWIDTH 658 0
DWIDTH 6 0
BBX 4 6 1 0
BITMAP
40
40
40
40
40
F0
ENDCHAR
STARTCHAR underscore
ENCODING 95
SWIDTH 500 0
DWIDTH 4 0
BBX 4 1 0 -2
BITMAP
F0
ENDCHAR
STARTCHAR radicalex
ENCODING 96
SWIDTH 500 0
DWIDTH 4 0
BBX 5 1 0 7
BITMAP
F8
ENDCHAR
STARTCHAR alpha
ENCODING 97
SWIDTH 631 0
DWIDTH 6 0
BBX 4 4 0 0
BITMAP
50
B0
A0
50
ENDCHAR
STARTCHAR beta
ENCODING 98
SWIDTH 549 0
DWIDTH 4 0
BBX 3 9 0 -2
BITMAP
40
A0
A0
C0
A0
A0
C0
80
80
ENDCHAR
STARTCHAR chi
ENCODING 99
SWIDTH 549 0
DWIDTH 5 0
BBX 4 6 0 -2
BITMAP
B0
A0
40
40
A0
B0
ENDCHAR
STARTCHAR delta
ENCODING 100
SWIDTH 494 0
DWIDTH 4 0
BBX 3 7 0 0
BITMAP
40
A0
80
40
A0
A0
C0
ENDCHAR
STARTCHAR epsilon
ENCODING 101
SWIDTH 439 0
DWIDTH 4 0
BBX 3 4 0 0
BITMAP
60
E0
80
60
ENDCHAR
STARTCHAR phi
ENCODING 102
SWIDTH 521 0
DWIDTH 5 0
BBX 4 8 0 -2
BITMAP
40
40
60
D0
D0
60
40
40
ENDCHAR
STARTCHAR gamma
ENCODING 103
SWIDTH 411 0
DWIDTH 5 0
BBX 4 6 0 -2
BITMAP
50
D0
60
20
40
40
ENDCHAR
STARTCHAR eta
ENCODING 104
SWIDTH 603 0
DWIDTH 5 0
BBX 4 6 0 -2
BITMAP
60
D0
50
50
10
10
ENDCHAR
STARTCHAR iota
ENCODING 105
SWIDTH 329 0
DWIDTH 3 0
BBX 2 4 0 0
BITMAP
C0
40
40
40
ENDCHAR
STARTCHAR phi1
ENCODING 106
SWIDTH 603 0
DWIDTH 5 0
BBX 4 6 0 -2
BITMAP
A0
D0
D0
60
40
40
ENDCHAR
STARTCHAR kappa
ENCODING 107
SWIDTH 549 0
DWIDTH 5 0
BBX 4 4 0 0
BITMAP
50
F0
60
50
ENDCHAR
STARTCHAR lambda
ENCODING 108
SWIDTH 549 0
DWIDTH 5 0
BBX 5 7 0 0
BITMAP
80
C0
40
20
60
90
98
ENDCHAR
STARTCHAR mu
ENCODING 109
SWIDTH 576 0
DWIDTH 5 0
BBX 4 6 0 -2
BITMAP
A0
A0
A0
D0
80
C0
ENDCHAR
STARTCHAR nu
ENCODING 110
SWIDTH 521 0
DWIDTH 5 0
BBX 4 4 0 0
BITMAP
90
90
E0
40
ENDCHAR
STARTCHAR omicron
ENCODING 111
SWIDTH 549 0
DWIDTH 4 0
BBX 3 4 0 0
BITMAP
40
A0
A0
40
ENDCHAR
STARTCHAR pi
ENCODING 112
SWIDTH 549 0
DWIDTH 5 0
BBX 4 4 0 0
BITMAP
F0
50
50
D0
ENDCHAR
STARTCHAR theta
ENCODING 113
SWIDTH 521 0
DWIDTH 4 0
BBX 3 6 0 0
BITMAP
40
A0
E0
A0
A0
40
ENDCHAR
STARTCHAR rho
ENCODING 114
SWIDTH 549 0
DWIDTH 4 0
BBX 3 6 0 -2
BITMAP
40
A0
A0
C0
80
80
ENDCHAR
STARTCHAR sigma
ENCODING 115
SWIDTH 603 0
DWIDTH 5 0
BBX 4 4 0 0
BITMAP
70
A0
A0
40
ENDCHAR
STARTCHAR tau
ENCODING 116
SWIDTH 439 0
DWIDTH 4 0
BBX 3 4 0 0
BITMAP
E0
40
40
60
ENDCHAR
STARTCHAR upsilon
ENCODING 117
SWIDTH 576 0
DWIDTH 5 0
BBX 4 4 0 0
BITMAP
50
D0
50
60
ENDCHAR
STARTCHAR omega1
ENCODING 118
SWIDTH 713 0
DWIDTH 6 0
BBX 5 5 0 0
BITMAP
F8
A8
A8
A8
58
ENDCHAR
STARTCHAR omega
ENCODING 119
SWIDTH 686 0
DWIDTH 6 0
BBX 5 4 0 0
BITMAP
88
A8
A8
58
ENDCHAR
STARTCHAR xi
ENCODING 120
SWIDTH 493 0
DWIDTH 4 0
BBX 3 9 0 -2
BITMAP
80
E0
40
60
80
80
40
20
60
ENDCHAR
STARTCHAR psi
ENCODING 121
SWIDTH 686 0
DWIDTH 6 0
BBX 5 6 0 -2
BITMAP
A8
A8
A8
70
20
20
ENDCHAR
STARTCHAR zeta
ENCODING 122
SWIDTH 494 0
DWIDTH 4 0
BBX 3 9 0 -2
BITMAP
80
E0
40
80
80
80
40
20
60
ENDCHAR
STARTCHAR braceleft
ENCODING 123
SWIDTH 480 0
DWIDTH 4 0
BBX 3 9 1 -2
BITMAP
20
40
40
40
80
40
40
40
20
ENDCHAR
STARTCHAR bar
ENCODING 124
SWIDTH 200 0
DWIDTH 2 0
BBX 1 8 0 -2
BITMAP
80
80
80
80
80
80
80
80
ENDCHAR
STARTCHAR braceright
ENCODING 125
SWIDTH 480 0
DWIDTH 4 0
BBX 3 9 1 -2
BITMAP
80
40
40
40
20
40
40
40
80
ENDCHAR
STARTCHAR similar
ENCODING 126
SWIDTH 549 0
DWIDTH 5 0
BBX 4 2 0 1
BITMAP
50
A0
ENDCHAR
STARTCHAR Upsilon1
ENCODING 161
SWIDTH 620 0
DWIDTH 6 0
BBX 5 6 0 0
BITMAP
98
A8
40
40
40
40
ENDCHAR
STARTCHAR minute
ENCODING 162
SWIDTH 247 0
DWIDTH 2 0
BBX 2 3 0 4
BITMAP
40
40
80
ENDCHAR
STARTCHAR lessequal
ENCODING 163
SWIDTH 549 0
DWIDTH 5 0
BBX 4 6 0 0
BITMAP
30
40
80
70
00
F0
ENDCHAR
STARTCHAR fraction
ENCODING 164
SWIDTH 167 0
DWIDTH 2 0
BBX 4 7 -1 0
BITMAP
10
20
20
40
40
40
80
ENDCHAR
STARTCHAR infinity
ENCODING 165
SWIDTH 713 0
DWIDTH 6 0
BBX 5 3 0 1
BITMAP
50
A8
50
ENDCHAR
STARTCHAR florin
ENCODING 166
SWIDTH 500 0
DWIDTH 4 0
BBX 4 8 0 -2
BITMAP
30
40
E0
40
40
40
40
80
ENDCHAR
STARTCHAR club
ENCODING 167
SWIDTH 753 0
DWIDTH 6 0
BBX 4 6 1 -1
BITMAP
60
60
F0
F0
40
40
ENDCHAR
STARTCHAR diamond
ENCODING 168
SWIDTH 753 0
DWIDTH 6 0
BBX 5 6 1 -1
BITMAP
20
70
F8
F0
60
40
ENDCHAR
STARTCHAR heart
ENCODING 169
SWIDTH 753 0
DWIDTH 6 0
BBX 5 6 1 -1
BITMAP
48
D8
F8
F0
60
40
ENDCHAR
STARTCHAR spade
ENCODING 170
SWIDTH 753 0
DWIDTH 6 0
BBX 4 6 1 0
BITMAP
20
60
F0
F0
50
40
ENDCHAR
STARTCHAR arrowboth
ENCODING 171
SWIDTH 1042 0
DWIDTH 8 0
BBX 8 5 0 0
BITMAP
24
42
FF
42
24
ENDCHAR
STARTCHAR arrowleft
ENCODING 172
SWIDTH 987 0
DWIDTH 8 0
BBX 8 5 0 0
BITMAP
20
40
FF
40
20
ENDCHAR
STARTCHAR arrowup
ENCODING 173
SWIDTH 603 0
DWIDTH 5 0
BBX 5 11 0 -3
BITMAP
20
70
A8
20
20
20
20
20
20
20
20
ENDCHAR
STARTCHAR arrowright
ENCODING 174
SWIDTH 987 0
DWIDTH 8 0
BBX 8 5 0 0
BITMAP
04
02
FF
02
04
ENDCHAR
STARTCHAR arrowdown
ENCODING 175
SWIDTH 603 0
DWIDTH 5 0
BBX 5 10 0 -2
BITMAP
20
20
20
20
20
20
20
A8
70
20
ENDCHAR
STARTCHAR degree
ENCODING 176
SWIDTH 400 0
DWIDTH 3 0
BBX 3 3 0 3
BITMAP
40
A0
40
ENDCHAR
STARTCHAR plusminus
ENCODING 177
SWIDTH 549 0
DWIDTH 5 0
BBX 5 6 0 0
BITMAP
20
20
F8
20
20
F8
ENDCHAR
STARTCHAR second
ENCODING 178
SWIDTH 411 0
DWIDTH 3 0
BBX 4 3 0 4
BITMAP
50
50
A0
ENDCHAR
STARTCHAR greaterequal
ENCODING 179
SWIDTH 549 0
DWIDTH 5 0
BBX 4 6 0 0
BITMAP
C0
20
10
E0
00
F0
ENDCHAR
STARTCHAR multiply
ENCODING 180
SWIDTH 549 0
DWIDTH 5 0
BBX 4 4 0 0
BITMAP
90
60
60
90
ENDCHAR
STARTCHAR proportional
ENCODING 181
SWIDTH 713 0
DWIDTH 6 0
BBX 5 3 0 1
BITMAP
58
A0
58
ENDCHAR
STARTCHAR partialdiff
ENCODING 182
SWIDTH 494 0
DWIDTH 4 0
BBX 3 7 0 0
BITMAP
40
A0
20
60
A0
A0
40
ENDCHAR
STARTCHAR bullet
ENCODING 183
SWIDTH 460 0
DWIDTH 4 0
BBX 3 3 0 1
BITMAP
40
E0
40
ENDCHAR
STARTCHAR divide
ENCODING 184
SWIDTH 549 0
DWIDTH 5 0
BBX 4 5 0 0
BITMAP
60
00
F0
00
60
ENDCHAR
STARTCHAR notequal
ENCODING 185
SWIDTH 549 0
DWIDTH 5 0
BBX 4 7 0 -2
BITMAP
20
20
F0
20
F0
40
40
ENDCHAR
STARTCHAR equivalence
ENCODING 186
SWIDTH 549 0
DWIDTH 5 0
BBX 4 5 0 0
BITMAP
F0
00
F0
00
F0
ENDCHAR
STARTCHAR approxequal
ENCODING 187
SWIDTH 549 0
DWIDTH 5 0
BBX 4 5 0 0
BITMAP
50
A0
00
50
A0
ENDCHAR
STARTCHAR ellipsis
ENCODING 188
SWIDTH 1000 0
DWIDTH 7 0
BBX 5 1 1 0
BITMAP
A8
ENDCHAR
STARTCHAR arrowvertex
ENCODING 189
SWIDTH 603 0
DWIDTH 5 0
BBX 1 11 2 -3
BITMAP
80
80
80
80
80
80
80
80
80
80
80
ENDCHAR
STARTCHAR arrowhorizex
ENCODING 190
SWIDTH 1000 0
DWIDTH 8 0
BBX 8 1 0 2
BITMAP
FF
ENDCHAR
STARTCHAR carriagereturn
ENCODING 191
SWIDTH 658 0
DWIDTH 6 0
BBX 5 5 0 0
BITMAP
08
08
48
F8
40
ENDCHAR
STARTCHAR aleph
ENCODING 192
SWIDTH 823 0
DWIDTH 6 0
BBX 5 6 0 0
BITMAP
D8
48
68
78
D8
C8
ENDCHAR
STARTCHAR Ifraktur
ENCODING 193
SWIDTH 686 0
DWIDTH 6 0
BBX 5 7 0 0
BITMAP
78
88
90
10
08
C8
78
ENDCHAR
STARTCHAR Rfraktur
ENCODING 194
SWIDTH 795 0
DWIDTH 6 0
BBX 6 7 0 0
BITMAP
58
A4
A4
38
28
68
CC
ENDCHAR
STARTCHAR weierstrass
ENCODING 195
SWIDTH 987 0
DWIDTH 7 0
BBX 5 7 1 -2
BITMAP
40
98
A8
C8
70
C0
40
ENDCHAR
STARTCHAR circlemultiply
ENCODING 196
SWIDTH 768 0
DWIDTH 6 0
BBX 5 6 0 0
BITMAP
70
D8
A8
A8
D8
70
ENDCHAR
STARTCHAR circleplus
ENCODING 197
SWIDTH 768 0
DWIDTH 6 0
BBX 5 6 0 0
BITMAP
70
A8
F8
A8
A8
70
ENDCHAR
STARTCHAR emptyset
ENCODING 198
SWIDTH 823 0
DWIDTH 6 0
BBX 5 8 0 -1
BITMAP
08
70
98
A8
A8
C8
70
80
ENDCHAR
STARTCHAR intersection
ENCODING 199
SWIDTH 768 0
DWIDTH 6 0
BBX 5 4 0 0
BITMAP
70
88
88
88
ENDCHAR
STARTCHAR union
ENCODING 200
SWIDTH 768 0
DWIDTH 6 0
BBX 5 4 0 0
BITMAP
88
88
88
70
ENDCHAR
STARTCHAR propersuperset
ENCODING 201
SWIDTH 713 0
DWIDTH 6 0
BBX 5 4 0 0
BITMAP
F0
08
08
F0
ENDCHAR
STARTCHAR reflexsuperset
ENCODING 202
SWIDTH 713 0
DWIDTH 6 0
BBX 5 6 0 -2
BITMAP
F0
08
08
F0
00
F8
ENDCHAR
STARTCHAR notsubset
ENCODING 203
SWIDTH 713 0
DWIDTH 6 0
BBX 5 6 0 -1
BITMAP
08
78
90
A0
78
40
ENDCHAR
STARTCHAR propersubset
ENCODING 204
SWIDTH 713 0
DWIDTH 6 0
BBX 5 4 0 0
BITMAP
78
80
80
78
ENDCHAR
STARTCHAR reflexsubset
ENCODING 205
SWIDTH 713 0
DWIDTH 6 0
BBX 5 6 0 -2
BITMAP
78
80
80
78
00
F8
ENDCHAR
STARTCHAR element
ENCODING 206
SWIDTH 713 0
DWIDTH 6 0
BBX 4 4 1 0
BITMAP
70
F0
80
70
ENDCHAR
STARTCHAR notelement
ENCODING 207
SWIDTH 713 0
DWIDTH 6 0
BBX 4 6 1 -1
BITMAP
20
70
F0
C0
70
40
ENDCHAR
STARTCHAR angle
ENCODING 208
SWIDTH 768 0
DWIDTH 6 0
BBX 5 5 0 0
BITMAP
08
10
20
40
F8
ENDCHAR
STARTCHAR gradient
ENCODING 209
SWIDTH 713 0
DWIDTH 6 0
BBX 5 6 0 0
BITMAP
F8
88
88
50
70
20
ENDCHAR
STARTCHAR registerserif
ENCODING 210
SWIDTH 790 0
DWIDTH 6 0
BBX 5 7 0 -1
BITMAP
70
C8
B8
B0
A8
C8
70
ENDCHAR
STARTCHAR copyrightserif
ENCODING 211
SWIDTH 790 0
DWIDTH 6 0
BBX 5 7 0 -1
BITMAP
70
88
B8
A0
B8
88
70
ENDCHAR
STARTCHAR trademarkserif
ENCODING 212
SWIDTH 890 0
DWIDTH 8 0
BBX 8 4 0 2
BITMAP
FC
5A
5A
5B
ENDCHAR
STARTCHAR product
ENCODING 213
SWIDTH 823 0
DWIDTH 7 0
BBX 6 8 0 -1
BITMAP
FC
48
48
48
48
48
48
CC
ENDCHAR
STARTCHAR radical
ENCODING 214
SWIDTH 549 0
DWIDTH 5 0
BBX 5 8 0 0
BITMAP
08
08
10
10
A0
A0
40
40
ENDCHAR
STARTCHAR dotmath
ENCODING 215
SWIDTH 250 0
DWIDTH 2 0
BBX 1 1 1 2
BITMAP
80
ENDCHAR
STARTCHAR logicalnot
ENCODING 216
SWIDTH 713 0
DWIDTH 6 0
BBX 5 3 0 0
BITMAP
F8
08
08
ENDCHAR
STARTCHAR logicaland
ENCODING 217
SWIDTH 603 0
DWIDTH 5 0
BBX 4 4 0 0
BITMAP
20
50
90
90
ENDCHAR
STARTCHAR logicalor
ENCODING 218
SWIDTH 603 0
DWIDTH 5 0
BBX 4 4 0 0
BITMAP
90
90
A0
40
ENDCHAR
STARTCHAR arrowdblboth
ENCODING 219
SWIDTH 1042 0
DWIDTH 9 0
BBX 8 4 0 0
BITMAP
24
7F
FE
24
ENDCHAR
STARTCHAR arrowdblleft
ENCODING 220
SWIDTH 987 0
DWIDTH 8 0
BBX 7 4 0 0
BITMAP
20
FE
7E
20
ENDCHAR
STARTCHAR arrowdblup
ENCODING 221
SWIDTH 603 0
DWIDTH 5 0
BBX 4 8 0 0
BITMAP
40
60
F0
60
60
60
60
60
ENDCHAR
STARTCHAR arrowdblright
ENCODING 222
SWIDTH 987 0
DWIDTH 8 0
BBX 7 4 0 0
BITMAP
08
FE
FC
08
ENDCHAR
STARTCHAR arrowdbldown
ENCODING 223
SWIDTH 603 0
DWIDTH 5 0
BBX 4 8 0 0
BITMAP
60
60
60
60
60
F0
60
40
ENDCHAR
STARTCHAR lozenge
ENCODING 224
SWIDTH 494 0
DWIDTH 6 0
BBX 5 6 0 0
BITMAP
20
50
C8
C8
50
20
ENDCHAR
STARTCHAR angleleft
ENCODING 225
SWIDTH 329 0
DWIDTH 2 0
BBX 2 8 0 -2
BITMAP
40
40
80
80
80
80
40
40
ENDCHAR
STARTCHAR registersans
ENCODING 226
SWIDTH 790 0
DWIDTH 6 0
BBX 5 7 0 -1
BITMAP
70
88
B8
B8
A8
88
70
ENDCHAR
STARTCHAR copyrightsans
ENCODING 227
SWIDTH 790 0
DWIDTH 6 0
BBX 5 7 0 -1
BITMAP
70
88
B8
A0
B8
88
70
ENDCHAR
STARTCHAR trademarksans
ENCODING 228
SWIDTH 786 0
DWIDTH 7 0
BBX 6 4 0 2
BITMAP
F8
6C
6C
6C
ENDCHAR
STARTCHAR summation
ENCODING 229
SWIDTH 713 0
DWIDTH 6 0
BBX 5 8 0 -1
BITMAP
F8
88
40
40
20
40
88
F8
ENDCHAR
STARTCHAR parenlefttp
ENCODING 230
SWIDTH 384 0
DWIDTH 3 0
BBX 2 11 1 -3
BITMAP
40
80
80
80
80
80
80
80
80
80
80
ENDCHAR
STARTCHAR parenleftex
ENCODING 231
SWIDTH 384 0
DWIDTH 3 0
BBX 1 11 1 -3
BITMAP
80
80
80
80
80
80
80
80
80
80
80
ENDCHAR
STARTCHAR parenleftbt
ENCODING 232
SWIDTH 384 0
DWIDTH 3 0
BBX 2 11 1 -3
BITMAP
80
80
80
80
80
80
80
80
80
80
40
ENDCHAR
STARTCHAR bracketlefttp
ENCODING 233
SWIDTH 384 0
DWIDTH 3 0
BBX 3 11 1 -3
BITMAP
E0
80
80
80
80
80
80
80
80
80
80
ENDCHAR
STARTCHAR bracketleftex
ENCODING 234
SWIDTH 384 0
DWIDTH 3 0
BBX 1 11 1 -3
BITMAP
80
80
80
80
80
80
80
80
80
80
80
ENDCHAR
STARTCHAR bracketleftbt
ENCODING 235
SWIDTH 384 0
DWIDTH 3 0
BBX 2 11 1 -3
BITMAP
80
80
80
80
80
80
80
80
80
80
C0
ENDCHAR
STARTCHAR bracelefttp
ENCODING 236
SWIDTH 494 0
DWIDTH 4 0
BBX 2 11 1 -3
BITMAP
40
80
80
80
80
80
80
80
80
80
80
ENDCHAR
STARTCHAR braceleftmid
ENCODING 237
SWIDTH 494 0
DWIDTH 4 0
BBX 2 11 0 -3
BITMAP
40
40
40
40
80
40
40
40
40
40
40
ENDCHAR
STARTCHAR braceleftbt
ENCODING 238
SWIDTH 494 0
DWIDTH 4 0
BBX 2 11 1 -3
BITMAP
80
80
80
80
80
80
80
80
80
80
40
ENDCHAR
STARTCHAR braceex
ENCODING 239
SWIDTH 494 0
DWIDTH 4 0
BBX 1 11 1 -3
BITMAP
80
80
80
80
80
80
80
80
80
80
80
ENDCHAR
STARTCHAR angleright
ENCODING 241
SWIDTH 329 0
DWIDTH 2 0
BBX 2 8 0 -2
BITMAP
80
80
40
40
40
40
80
80
ENDCHAR
STARTCHAR integral
ENCODING 242
SWIDTH 274 0
DWIDTH 2 0
BBX 3 11 1 -3
BITMAP
20
40
40
40
40
40
40
40
40
40
80
ENDCHAR
STARTCHAR integraltp
ENCODING 243
SWIDTH 686 0
DWIDTH 6 0
BBX 3 11 1 -3
BITMAP
60
60
80
80
80
80
80
80
80
80
80
ENDCHAR
STARTCHAR integralex
ENCODING 244
SWIDTH 686 0
DWIDTH 6 0
BBX 1 11 -1 -3
BITMAP
80
80
80
80
80
80
80
80
80
80
80
ENDCHAR
STARTCHAR integralbt
ENCODING 245
SWIDTH 686 0
DWIDTH 6 0
BBX 3 11 -1 -3
BITMAP
20
20
20
20
20
20
20
20
20
C0
C0
ENDCHAR
STARTCHAR parenrighttp
ENCODING 246
SWIDTH 384 0
DWIDTH 3 0
BBX 2 11 0 -3
BITMAP
80
40
40
40
40
40
40
40
40
40
40
ENDCHAR
STARTCHAR parenrightex
ENCODING 247
SWIDTH 384 0
DWIDTH 3 0
BBX 1 11 1 -3
BITMAP
80
80
80
80
80
80
80
80
80
80
80
ENDCHAR
STARTCHAR parenrightbt
ENCODING 248
SWIDTH 384 0
DWIDTH 3 0
BBX 2 11 0 -3
BITMAP
40
40
40
40
40
40
40
40
40
40
80
ENDCHAR
STARTCHAR bracketrighttp
ENCODING 249
SWIDTH 384 0
DWIDTH 3 0
BBX 2 11 0 -3
BITMAP
C0
40
40
40
40
40
40
40
40
40
40
ENDCHAR
STARTCHAR bracketrightex
ENCODING 250
SWIDTH 384 0
DWIDTH 3 0
BBX 1 11 1 -3
BITMAP
80
80
80
80
80
80
80
80
80
80
80
ENDCHAR
STARTCHAR bracketrightbt
ENCODING 251
SWIDTH 384 0
DWIDTH 3 0
BBX 2 11 0 -3
BITMAP
40
40
40
40
40
40
40
40
40
40
C0
ENDCHAR
STARTCHAR bracerighttp
ENCODING 252
SWIDTH 494 0
DWIDTH 4 0
BBX 2 11 0 -3
BITMAP
80
40
40
40
40
40
40
40
40
40
40
ENDCHAR
STARTCHAR bracerightmid
ENCODING 253
SWIDTH 494 0
DWIDTH 4 0
BBX 2 11 1 -3
BITMAP
80
80
80
80
40
80
80
80
80
80
80
ENDCHAR
STARTCHAR bracerightbt
ENCODING 254
SWIDTH 494 0
DWIDTH 4 0
BBX 2 11 0 -3
BITMAP
40
40
40
40
40
40
40
40
40
40
80
ENDCHAR
STARTCHAR apple
ENCODING -1
SWIDTH 790 0
DWIDTH 6 0
BBX 5 7 0 0
BITMAP
30
20
78
E0
E0
78
50
ENDCHAR
ENDFONT
